<mxfile host="app.diagrams.net" modified="2022-04-02T16:09:36.639Z" agent="5.0 (Windows NT 10.0; Win64; x64) AppleWebKit/537.36 (KHTML, like Gecko) Chrome/99.0.4844.84 Safari/537.36" etag="2-WsnKNF_R-Q06As_98J" version="15.8.3" type="github">
  <diagram id="GzsZJ0gia4HIRhkVY6vl" name="Page-1">
    <mxGraphModel dx="1178" dy="641" grid="1" gridSize="10" guides="1" tooltips="1" connect="1" arrows="1" fold="1" page="1" pageScale="1" pageWidth="827" pageHeight="1169" math="0" shadow="0">
      <root>
        <mxCell id="0" />
        <mxCell id="1" parent="0" />
        <mxCell id="gN-B2AEJe_XTWejiOF4b-1" value="targetMap" style="rounded=0;whiteSpace=wrap;html=1;fontStyle=1;fontSize=20;fontFamily=Comic Sans MS;labelBorderColor=none;strokeWidth=2;" vertex="1" parent="1">
          <mxGeometry x="160" y="160" width="160" height="40" as="geometry" />
        </mxCell>
        <mxCell id="gN-B2AEJe_XTWejiOF4b-4" value="product" style="rounded=0;whiteSpace=wrap;html=1;labelBorderColor=none;fontFamily=Comic Sans MS;fontSize=12;strokeWidth=1;" vertex="1" parent="1">
          <mxGeometry x="160" y="200" width="80" height="40" as="geometry" />
        </mxCell>
        <mxCell id="gN-B2AEJe_XTWejiOF4b-22" style="edgeStyle=none;rounded=0;orthogonalLoop=1;jettySize=auto;html=1;exitX=1;exitY=0.5;exitDx=0;exitDy=0;entryX=0;entryY=0.5;entryDx=0;entryDy=0;fontFamily=Comic Sans MS;fontSize=12;endArrow=classic;endFill=1;strokeWidth=1;" edge="1" parent="1" source="gN-B2AEJe_XTWejiOF4b-5" target="gN-B2AEJe_XTWejiOF4b-15">
          <mxGeometry relative="1" as="geometry" />
        </mxCell>
        <mxCell id="gN-B2AEJe_XTWejiOF4b-5" value="Map" style="rounded=0;whiteSpace=wrap;html=1;labelBorderColor=none;fontFamily=Comic Sans MS;fontSize=12;strokeWidth=1;" vertex="1" parent="1">
          <mxGeometry x="240" y="200" width="80" height="40" as="geometry" />
        </mxCell>
        <mxCell id="gN-B2AEJe_XTWejiOF4b-6" value="......" style="rounded=0;whiteSpace=wrap;html=1;labelBorderColor=none;fontFamily=Comic Sans MS;fontSize=12;strokeWidth=1;" vertex="1" parent="1">
          <mxGeometry x="160" y="240" width="80" height="40" as="geometry" />
        </mxCell>
        <mxCell id="gN-B2AEJe_XTWejiOF4b-7" value="......" style="rounded=0;whiteSpace=wrap;html=1;labelBorderColor=none;fontFamily=Comic Sans MS;fontSize=12;strokeWidth=1;" vertex="1" parent="1">
          <mxGeometry x="240" y="240" width="80" height="40" as="geometry" />
        </mxCell>
        <mxCell id="gN-B2AEJe_XTWejiOF4b-14" value="" style="orthogonalLoop=1;jettySize=auto;html=1;fontFamily=Comic Sans MS;fontSize=12;entryX=0;entryY=0.5;entryDx=0;entryDy=0;strokeWidth=1;rounded=0;endArrow=classic;endFill=1;" edge="1" parent="1" source="gN-B2AEJe_XTWejiOF4b-11" target="gN-B2AEJe_XTWejiOF4b-4">
          <mxGeometry relative="1" as="geometry" />
        </mxCell>
        <mxCell id="gN-B2AEJe_XTWejiOF4b-11" value="reactive object" style="text;html=1;align=center;verticalAlign=middle;resizable=0;points=[];autosize=1;strokeColor=none;fillColor=none;fontSize=12;fontFamily=Comic Sans MS;" vertex="1" parent="1">
          <mxGeometry x="20" y="210" width="100" height="20" as="geometry" />
        </mxCell>
        <mxCell id="gN-B2AEJe_XTWejiOF4b-15" value="depsMap" style="rounded=0;whiteSpace=wrap;html=1;fontStyle=1;fontSize=20;fontFamily=Comic Sans MS;labelBorderColor=none;strokeWidth=2;" vertex="1" parent="1">
          <mxGeometry x="400" y="200" width="160" height="40" as="geometry" />
        </mxCell>
        <mxCell id="gN-B2AEJe_XTWejiOF4b-16" value="quantity" style="rounded=0;whiteSpace=wrap;html=1;labelBorderColor=none;fontFamily=Comic Sans MS;fontSize=12;strokeWidth=1;" vertex="1" parent="1">
          <mxGeometry x="400" y="240" width="80" height="40" as="geometry" />
        </mxCell>
        <mxCell id="gN-B2AEJe_XTWejiOF4b-33" style="edgeStyle=none;rounded=0;orthogonalLoop=1;jettySize=auto;html=1;exitX=1;exitY=0.5;exitDx=0;exitDy=0;entryX=0;entryY=0.5;entryDx=0;entryDy=0;fontFamily=Comic Sans MS;fontSize=12;endArrow=classic;endFill=1;strokeWidth=1;" edge="1" parent="1" source="gN-B2AEJe_XTWejiOF4b-17" target="gN-B2AEJe_XTWejiOF4b-23">
          <mxGeometry relative="1" as="geometry" />
        </mxCell>
        <mxCell id="gN-B2AEJe_XTWejiOF4b-17" value="Set" style="rounded=0;whiteSpace=wrap;html=1;labelBorderColor=none;fontFamily=Comic Sans MS;fontSize=12;strokeWidth=1;" vertex="1" parent="1">
          <mxGeometry x="480" y="240" width="80" height="40" as="geometry" />
        </mxCell>
        <mxCell id="gN-B2AEJe_XTWejiOF4b-18" value="price" style="rounded=0;whiteSpace=wrap;html=1;labelBorderColor=none;fontFamily=Comic Sans MS;fontSize=12;strokeWidth=1;" vertex="1" parent="1">
          <mxGeometry x="400" y="280" width="80" height="40" as="geometry" />
        </mxCell>
        <mxCell id="gN-B2AEJe_XTWejiOF4b-19" value="Set" style="rounded=0;whiteSpace=wrap;html=1;labelBorderColor=none;fontFamily=Comic Sans MS;fontSize=12;strokeWidth=1;" vertex="1" parent="1">
          <mxGeometry x="480" y="280" width="80" height="40" as="geometry" />
        </mxCell>
        <mxCell id="gN-B2AEJe_XTWejiOF4b-20" value="......" style="rounded=0;whiteSpace=wrap;html=1;labelBorderColor=none;fontFamily=Comic Sans MS;fontSize=12;strokeWidth=1;" vertex="1" parent="1">
          <mxGeometry x="400" y="320" width="80" height="40" as="geometry" />
        </mxCell>
        <mxCell id="gN-B2AEJe_XTWejiOF4b-21" value="......" style="rounded=0;whiteSpace=wrap;html=1;labelBorderColor=none;fontFamily=Comic Sans MS;fontSize=12;strokeWidth=1;" vertex="1" parent="1">
          <mxGeometry x="480" y="320" width="80" height="40" as="geometry" />
        </mxCell>
        <mxCell id="gN-B2AEJe_XTWejiOF4b-23" value="Set" style="rounded=0;whiteSpace=wrap;html=1;fontStyle=1;fontSize=20;fontFamily=Comic Sans MS;labelBorderColor=none;strokeWidth=2;" vertex="1" parent="1">
          <mxGeometry x="640" y="240" width="120" height="40" as="geometry" />
        </mxCell>
        <mxCell id="gN-B2AEJe_XTWejiOF4b-31" value="effect" style="rounded=0;whiteSpace=wrap;html=1;labelBorderColor=none;fontFamily=Comic Sans MS;fontSize=12;strokeWidth=1;" vertex="1" parent="1">
          <mxGeometry x="640" y="280" width="120" height="40" as="geometry" />
        </mxCell>
        <mxCell id="gN-B2AEJe_XTWejiOF4b-32" value="......" style="rounded=0;whiteSpace=wrap;html=1;labelBorderColor=none;fontFamily=Comic Sans MS;fontSize=12;strokeWidth=1;" vertex="1" parent="1">
          <mxGeometry x="640" y="320" width="120" height="40" as="geometry" />
        </mxCell>
      </root>
    </mxGraphModel>
  </diagram>
</mxfile>
